<?xml version="1.0" encoding="UTF-8"?>
<!DOCTYPE svg PUBLIC "-//W3C//DTD SVG 1.1//EN" "http://www.w3.org/Graphics/SVG/1.1/DTD/svg11.dtd">
<!-- Creator: CorelDRAW 2021 (64-Bit) -->
<svg xmlns="http://www.w3.org/2000/svg" xml:space="preserve" width="2in" height="2in" version="1.1" style="shape-rendering:geometricPrecision; text-rendering:geometricPrecision; image-rendering:optimizeQuality; fill-rule:evenodd; clip-rule:evenodd"
viewBox="0 0 2000 2000"
 xmlns:xlink="http://www.w3.org/1999/xlink"
 xmlns:xodm="http://www.corel.com/coreldraw/odm/2003">
 <defs>
  <style type="text/css">
   <![CDATA[
    .str3 {stroke:#4B4B4D;stroke-width:111.11;stroke-linecap:round;stroke-linejoin:round;stroke-miterlimit:2.61313}
    .str1 {stroke:#4B4B4D;stroke-width:138.89;stroke-linecap:round;stroke-linejoin:round;stroke-miterlimit:2.61313}
    .str0 {stroke:#373435;stroke-width:18;stroke-linecap:round;stroke-linejoin:round;stroke-miterlimit:2.61313}
    .str4 {stroke:#F5874F;stroke-width:18;stroke-linecap:round;stroke-linejoin:round;stroke-miterlimit:2.61313}
    .str2 {stroke:#FEFEFE;stroke-width:18;stroke-linecap:round;stroke-linejoin:round;stroke-miterlimit:2.61313}
    .fil1 {fill:none}
    .fil0 {fill:#4B4B4D}
    .fil3 {fill:#F5874F}
    .fil2 {fill:#FEFEFE}
   ]]>
  </style>
 </defs>
 <g id="Layer_x0020_1">
  <metadata id="CorelCorpID_0Corel-Layer"/>
  <path class="fil0 str0" d="M180.26 894.63l139.2 0c50.66,0 91.68,62.93 91.68,140.57l0 180.41c0,77.64 -41.02,140.57 -91.68,140.57l-139.2 0c-50.66,0 -91.68,-62.93 -91.68,-140.57l0 -180.41c0,-77.64 41.02,-140.57 91.68,-140.57z"/>
  <path class="fil0 str0" d="M1666.87 872.35l139.2 0c50.59,0 91.68,62.93 91.68,140.57l0 180.41c0,77.64 -41.09,140.57 -91.68,140.57l-139.2 0c-50.66,0 -91.68,-62.93 -91.68,-140.57l0 -180.41c0,-77.64 41.02,-140.57 91.68,-140.57z"/>
  <path class="fil1 str1" d="M263.15 902.35c0,-381.37 324.16,-690.67 723.68,-690.67 399.83,0 723.76,309.3 723.76,690.67"/>
  <ellipse class="fil2 str2" cx="988.83" cy="933.13" rx="643.53" ry="606.32"/>
  <ellipse class="fil2 str3" cx="988.83" cy="957.84" rx="602.09" ry="605.69"/>
  <g id="_1359891279584">
   <g>
    <path class="fil3 str4" d="M741.33 808.13l0 0c9.1,0 16.43,32.86 16.43,73.44l0 232.68c0,40.58 -7.37,73.44 -16.43,73.44l0 0c-9.1,0 -16.43,-32.86 -16.43,-73.44l0 -232.68c0,-40.58 7.37,-73.44 16.43,-73.44z"/>
    <g>
     <path class="fil3 str4" d="M571.07 935.02l0 0c9.1,0 16.43,11.37 16.43,25.45l0 81.32c0,14.04 -7.37,25.45 -16.43,25.45l0 0c-9.1,0 -16.43,-11.37 -16.43,-25.45l-0.08 -81.32c0.08,-14.04 7.41,-25.45 16.51,-25.45z"/>
     <path class="fil3 str4" d="M623.54 915.41l0 0c9.1,0 16.43,14.98 16.43,33.53l0 106.81c0,18.51 -7.37,33.52 -16.43,33.52l0 0c-9.1,0 -16.43,-14.98 -16.43,-33.52l0 -106.81c0,-18.51 7.37,-33.53 16.43,-33.53z"/>
     <path class="fil3 str4" d="M685.45 878.2l0 0c9.1,0 16.43,22.43 16.43,50.04l0 158.8c0,27.61 -7.37,50.04 -16.43,50.04l0 0c-9.1,0 -16.43,-22.43 -16.43,-50.04l0 -158.8c0,-27.61 7.37,-50.04 16.43,-50.04z"/>
     <path class="fil3 str4" d="M806.89 875.77l0 0c9.1,0 16.43,22.35 16.43,49.96l0 158.84c0,27.6 -7.37,49.96 -16.43,49.96l0 0c-9.1,0 -16.43,-22.35 -16.43,-50.04l-0.08 -158.8c0.08,-27.61 7.41,-49.96 16.51,-49.96l0 0.04z"/>
     <path class="fil3 str4" d="M867 913.61l0 0c9.1,0 16.43,14.98 16.43,33.52l0 106.81c0,18.5 -7.37,33.52 -16.43,33.52l0 0c-9.1,0 -16.43,-14.98 -16.43,-33.52l0 -106.81c0,-18.5 7.37,-33.52 16.43,-33.52z"/>
     <path class="fil3 str4" d="M920.64 937.88l0 0c9.1,0 16.43,11.37 16.43,25.45l0 81.32c0,14.04 -7.37,25.53 -16.43,25.53l0 0c-9.09,0 -16.43,-11.45 -16.43,-25.53l0 -81.32c0,-14.04 7.37,-25.45 16.43,-25.45z"/>
    </g>
   </g>
   <path class="fil3 str4" d="M981.42 930.47l0 0c9.1,0 16.43,11.37 16.43,25.45l0 81.32c0,14.04 -7.37,25.45 -16.43,25.45l0 0.08c-9.1,-0.08 -16.43,-11.45 -16.43,-25.53l0 -81.32c0,-14.04 7.37,-25.45 16.43,-25.45z"/>
   <g>
    <path class="fil3 str4" d="M1231.24 804.56l0 0c9.09,0 16.43,32.86 16.43,73.44l0 232.68c0,40.58 -7.37,73.44 -16.43,73.44l0 0c-9.1,0 -16.43,-32.86 -16.43,-73.44l0 -232.68c0,-40.58 7.37,-73.44 16.43,-73.44z"/>
    <g>
     <path class="fil3 str4" d="M1060.98 931.41l0 0c9.02,0 16.43,11.37 16.43,25.45l0 81.32c0,14.04 -7.41,25.45 -16.43,25.45l0 0c-9.1,0 -16.51,-11.37 -16.51,-25.45l0 -81.32c0,-14.04 7.41,-25.45 16.51,-25.45z"/>
     <path class="fil3 str4" d="M1113.44 911.8l0 0c9.1,0 16.43,14.98 16.43,33.52l0 106.81c0,18.5 -7.37,33.52 -16.43,33.52l0 0c-9.1,0 -16.43,-14.98 -16.43,-33.61l-0.07 -106.73c0.07,-18.5 7.41,-33.52 16.51,-33.52l0 0z"/>
     <path class="fil3 str4" d="M1175.16 874.59l0 0c9.1,0 16.43,22.43 16.43,50.03l0 158.81c0,27.61 -7.37,50.03 -16.43,50.03l0 0c-9.1,0 -16.43,-22.43 -16.43,-50.03l0 -158.81c0,-27.6 7.37,-50.03 16.43,-50.03z"/>
     <path class="fil3 str4" d="M1296.76 872.16l0 0c9.1,0 16.43,22.35 16.43,50.03l0 158.8c0,27.61 -7.37,49.96 -16.43,49.96l0 0c-9.02,0 -16.43,-22.35 -16.43,-49.96l0 -158.8c0,-27.68 7.41,-50.03 16.43,-50.03z"/>
     <path class="fil3 str4" d="M1356.94 910l0 0c9.1,0 16.43,14.98 16.43,33.52l0 106.81c0,18.51 -7.37,33.53 -16.43,33.53l0 0c-9.1,0 -16.43,-14.98 -16.43,-33.53l0 -106.81c0,-18.51 7.37,-33.52 16.43,-33.52z"/>
     <path class="fil3 str4" d="M1410.27 934.27l0 0c9.1,0 16.43,11.37 16.43,25.44l0 81.37c0,14 -7.37,25.45 -16.43,25.45l0 0c-9.02,0 -16.43,-11.45 -16.43,-25.53l0 -81.32c0,-14.04 7.41,-25.45 16.43,-25.45l0 0.04z"/>
    </g>
   </g>
  </g>
 </g>
</svg>
